#!OML:ASF I:\Actors\actors\Patient Classification 2\Patient 1\Session 1\actor1.ASF
:FULLY-SPECIFIED
:DEGREES
529
root -0.907799 18.6878 6.39808 13.4956 -3.46247 -2.55614
lowerback 10.5579 0.232521 4.01299
upperback -1.34838 0.907763 1.00327
thorax -7.3209 0.299905 -1.35309
lowerneck 3.90623 18.3884 22.0048
upperneck 12.0875 27.1708 -16.5255
head 8.42748 13.5924 -5.88362
rclavicle -6.95746e-016 9.93923e-016
rhumerus -85.1056 9.13367 -95.2509
rradius 106.119
rwrist 0.897182
rhand 1.85637 -24.3778
rfingers 7.12502
rthumb 27.3672 -52.4108
lclavicle -6.95746e-016 9.93923e-016
lhumerus -84.8681 -22.4364 108.264
lradius 106.192
lwrist 17.8366
lhand -13.8793 -24.3517
lfingers 7.12502
lthumb 12.2455 5.26979
rfemur -7.42673 2.36384 16.477
rtibia 5.68425
rfoot -18.3972 -11.419
rtoes -11.5503
lfemur -19.9852 3.12393 -10.9222
ltibia 28.6099
lfoot -21.043 7.77447
ltoes -57.4548
530
root -0.901549 18.687 6.40678 13.5612 -3.495 -2.6199
lowerback 10.5026 0.281992 3.96782
upperback -1.37959 0.958523 0.900015
thorax -7.31867 0.323927 -1.44463
lowerneck 4.02444 18.5581 22.1508
upperneck 12.0751 27.405 -16.4087
head 8.45256 13.7173 -5.82276
rclavicle 3.97569e-015 -1.15295e-014
rhumerus -85.1204 9.12851 -95.3442
rradius 105.985
rwrist 0.975401
rhand 2.05777 -24.1785
rfingers 7.12502
rthumb 27.5598 -52.1809
lclavicle 3.97569e-015 -1.15295e-014
lhumerus -84.8023 -22.5538 108.088
lradius 106.585
lwrist 17.1542
lhand -13.5951 -22.4958
lfingers 7.12502
lthumb 12.5195 7.10913
rfemur -7.44668 2.37205 16.5136
rtibia 5.61931
rfoot -18.388 -11.3773
rtoes -11.0798
lfemur -19.9926 3.10655 -10.8803
ltibia 28.5549
lfoot -21.0485 7.85839
ltoes -57.4921
531
root -0.896334 18.6859 6.41454 13.5735 -3.53395 -2.69227
lowerback 10.4946 0.330957 3.91164
upperback -1.39785 1.01058 0.815919
thorax -7.32995 0.349331 -1.51043
lowerneck 4.05912 18.6777 22.2353
upperneck 12.1898 27.5689 -16.2764
head 8.50892 13.8016 -5.75517
rclavicle 3.37934e-015 -3.22031e-014
rhumerus -85.1109 9.10772 -95.4061
rradius 105.859
rwrist 1.04794
rhand 2.40527 -23.955
rfingers 7.12502
rthumb 27.8921 -51.9039
lclavicle 3.37934e-015 -3.22031e-014
lhumerus -84.7402 -22.6339 107.998
lradius 106.695
lwrist 16.9206
lhand -13.3356 -21.7844
lfingers 7.12502
lthumb 12.7697 7.80513
rfemur -7.33061 2.39311 16.5634
rtibia 5.38717
rfoot -18.242 -11.414
rtoes -11.0874
lfemur -19.9693 3.07564 -10.828
ltibia 28.5549
lfoot -21.0943 7.97408
ltoes -57.5031
532
root -0.890879 18.6863 6.42104 13.5816 -3.52915 -2.70441
lowerback 10.5041 0.36547 3.80594
upperback -1.41311 1.03848 0.742994
thorax -7.35027 0.365121 -1.53282
lowerneck 4.04815 18.741 22.2561
upperneck 12.307 27.6529 -16.1809
head 8.55455 13.8425 -5.7055
rclavicle 4.47266e-016 5.96354e-015
rhumerus -85.0332 9.0771 -95.4104
rradius 105.734
rwrist 1.06758
rhand 2.6003 -23.9778
rfingers 7.12502
rthumb 28.0785 -51.8962
lclavicle 4.47266e-016 5.96354e-015
lhumerus -84.6873 -22.7243 107.966
lradius 106.703
lwrist 16.8977
lhand -13.2338 -21.7425
lfingers 7.12502
lthumb 12.8678 7.8408
rfemur -7.14382 2.35665 16.555
rtibia 5.02693
rfoot -18.011 -11.5046
rtoes -11.4518
lfemur -19.9799 2.98489 -10.8327
ltibia 28.6045
lfoot -21.1536 8.05695
ltoes -57.4844
533
root -0.887292 18.6871 6.42774 13.6186 -3.47531 -2.75328
lowerback 10.4521 0.382665 3.71065
upperback -1.41313 1.04419 0.711108
thorax -7.32085 0.371749 -1.51311
lowerneck 3.94617 18.7868 22.1863
upperneck 12.4943 27.7059 -16.088
head 8.62012 13.8596 -5.64371
rclavicle -4.07509e-015 -1.33186e-014
rhumerus -84.8973 9.06453 -95.3736
rradius 105.589
rwrist 1.1474
rhand 2.68724 -24.0769
rfingers 7.12502
rthumb 28.1617 -51.9818
lclavicle -4.07509e-015 -1.33186e-014
lhumerus -84.6175 -22.7958 107.942
lradius 106.75
lwrist 16.8748
lhand -13.2424 -21.7395
lfingers 7.12502
lthumb 12.8595 7.8444
rfemur -6.98834 2.28133 16.6039
rtibia 4.68795
rfoot -17.8202 -11.5855
rtoes -11.6394
lfemur -20.0356 2.90064 -10.7782
ltibia 28.6624
lfoot -21.1693 8.04904
ltoes -57.4495
534
root -0.885278 18.6864 6.43387 13.634 -3.4256 -2.83917
lowerback 10.4001 0.38993 3.61445
upperback -1.40387 1.03879 0.712366
thorax -7.28284 0.373971 -1.45601
lowerneck 3.84187 18.7803 22.0135
upperneck 12.737 27.6838 -15.9508
head 8.66789 13.8391 -5.57401
rclavicle -2.98177e-016 1.03368e-014
rhumerus -84.8098 9.12653 -95.3287
rradius 105.487
rwrist 1.24636
rhand 2.88887 -24.0757
rfingers 7.12502
rthumb 28.3544 -51.9487
lclavicle -2.98177e-016 1.03368e-014
lhumerus -84.5615 -22.7617 107.94
lradius 106.821
lwrist 16.83
lhand -13.2041 -21.6435
lfingers 7.12502
lthumb 12.8964 7.93807
rfemur -6.83347 2.22246 16.7052
rtibia 4.39522
rfoot -17.6622 -11.6576
rtoes -11.7351
lfemur -20.0732 2.87823 -10.6823
ltibia 28.7288
lfoot -21.1631 8.01652
ltoes -57.435
535
root -0.882611 18.6853 6.43947 13.629 -3.37791 -2.90074
lowerback 10.3853 0.39094 3.53395
upperback -1.42635 1.02712 0.675885
thorax -7.29942 0.370257 -1.44725
lowerneck 3.80455 18.6466 21.8707
upperneck 12.9789 27.4998 -15.8318
head 8.68018 13.7474 -5.556
rclavicle -4.72114e-016 -1.46107e-014
rhumerus -84.8233 9.19067 -95.3481
rradius 105.417
rwrist 1.33422
rhand 3.05393 -24.0259
rfingers 7.12502
rthumb 28.5121 -51.8725
lclavicle -4.72114e-016 -1.46107e-014
lhumerus -84.5758 -22.7143 107.925
lradius 106.872
lwrist 16.7524
lhand -13.1579 -21.6005
lfingers 7.12502
lthumb 12.941 7.97817
rfemur -6.67454 2.16007 16.778
rtibia 4.13731
rfoot -17.5167 -11.7122
rtoes -11.786
lfemur -20.096 2.86505 -10.6228
ltibia 28.8053
lfoot -21.1894 8.00699
ltoes -57.4227
536
root -0.880565 18.6845 6.44418 13.6532 -3.30927 -2.94443
lowerback 10.3215 0.38748 3.46866
upperback -1.46077 1.0074 0.608357
thorax -7.30035 0.361489 -1.4779
lowerneck 3.69139 18.4257 21.7386
upperneck 13.3097 27.1921 -15.7113
head 8.713 13.5929 -5.55547
rclavicle 4.8578e-015 -8.89561e-015
rhumerus -84.8082 9.22165 -95.423
rradius 105.329
rwrist 1.55111
rhand 3.1423 -24.0493
rfingers 7.12502
rthumb 28.5965 -51.8817
lclavicle 4.8578e-015 -8.89561e-015
lhumerus -84.5769 -22.7211 107.861
lradius 106.902
lwrist 16.6771
lhand -13.1109 -21.6593
lfingers 7.12502
lthumb 12.9863 7.91655
rfemur -6.57421 2.07023 16.8304
rtibia 3.93015
rfoot -17.4471 -11.7231
rtoes -11.4661
lfemur -20.1626 2.79332 -10.5773
ltibia 28.8862
lfoot -21.2406 8.05064
ltoes -57.4171
537
root -0.880112 18.684 6.44916 13.6757 -3.2382 -2.98697
lowerback 10.2375 0.374044 3.36163
upperback -1.48741 0.970332 0.572801
thorax -7.28335 0.347117 -1.4482
lowerneck 3.4914 18.1771 21.4659
upperneck 13.7332 26.8221 -15.4873
head 8.74414 13.4021 -5.51056
rclavicle 1.10885e-014 3.2054e-015
rhumerus -84.773 9.29067 -95.4807
rradius 105.26
rwrist 1.77239
rhand 3.24089 -24.1039
rfingers 7.12502
rthumb 28.6907 -51.9204
lclavicle 1.10885e-014 3.2054e-015
lhumerus -84.5805 -22.6534 107.814
lradius 106.963
lwrist 16.5606
lhand -13.0551 -21.7219
lfingers 7.12502
lthumb 13.0401 7.8505
rfemur -6.52105 1.97792 16.8852
rtibia 3.82949
rfoot -17.443 -11.6677
rtoes -10.827
lfemur -20.2235 2.71431 -10.5271
ltibia 28.9591
lfoot -21.2637 8.1273
ltoes -57.4609
538
root -0.879933 18.6832 6.45586 13.6634 -3.15669 -3.07629
lowerback 10.1991 0.353545 3.29109
upperback -1.52123 0.932886 0.567044
thorax -7.30016 0.331036 -1.40821
lowerneck 3.19506 17.8198 21.0373
upperneck 14.1785 26.2798 -15.2219
head 8.73923 13.1206 -5.4614
rclavicle -1.48778e-015 -5.80203e-015
rhumerus -84.8203 9.33743 -95.535
rradius 105.238
rwrist 1.80909
rhand 3.20706 -24.0373
rfingers 7.12502
rthumb 28.6584 -51.8593
lclavicle -1.48778e-015 -5.80203e-015
lhumerus -84.6535 -22.5257 107.819
lradius 107.035
lwrist 16.4139
lhand -13.1049 -21.7775
lfingers 7.12502
lthumb 12.9921 7.79798
rfemur -6.48533 1.88921 16.9966
rtibia 3.85144
rfoot -17.4316 -11.5944
rtoes -10.4741
lfemur -20.2331 2.66057 -10.4217
ltibia 29.0211
lfoot -21.2725 8.18248
ltoes -57.5021
539
root -0.878924 18.6834 6.46178 13.6454 -3.08097 -3.14736
lowerback 10.1805 0.328269 3.1951
upperback -1.57179 0.88703 0.560442
thorax -7.34681 0.31126 -1.35376
lowerneck 2.89276 17.2812 20.4115
upperneck 14.3657 25.466 -15.0272
head 8.58282 12.7029 -5.4692
rclavicle -1.03368e-014 5.54112e-015
rhumerus -84.921 9.37414 -95.6179
rradius 105.23
rwrist 1.76482
rhand 3.14819 -23.8995
rfingers 7.12502
rthumb 28.6022 -51.731
lclavicle -1.03368e-014 5.54112e-015
lhumerus -84.7394 -22.3558 107.827
lradius 107.078
lwrist 16.3286
lhand -13.1745 -21.8425
lfingers 7.12502
lthumb 12.925 7.73723
rfemur -6.48886 1.80095 17.0843
rtibia 3.93762
rfoot -17.3934 -11.5872
rtoes -10.6591
lfemur -20.2329 2.61599 -10.3406
ltibia 29.0692
lfoot -21.2896 8.21683
ltoes -57.5141
540
root -0.877699 18.6847 6.46572 13.6469 -3.01446 -3.15042
lowerback 10.1493 0.29792 3.00807
upperback -1.63518 0.823113 0.561493
thorax -7.40169 0.286567 -1.23694
lowerneck 2.47909 16.5557 19.5295
upperneck 14.5096 24.3259 -14.588
head 8.30914 12.1248 -5.41449
rclavicle -3.23025e-015 1.69464e-014
rhumerus -85.0621 9.45945 -95.7049
rradius 105.248
rwrist 1.71072
rhand 3.16249 -23.9332
rfingers 7.12502
rthumb 28.6158 -51.7624
lclavicle -3.23025e-015 1.69464e-014
lhumerus -84.8182 -22.1153 107.834
lradius 107.135
lwrist 16.2676
lhand -13.1356 -21.9368
lfingers 7.12502
lthumb 12.9625 7.64054
rfemur -6.5576 1.70292 17.0951
rtibia 4.09722
rfoot -17.3955 -11.5677
rtoes -10.8689
lfemur -20.2556 2.58336 -10.3393
ltibia 29.0992
lfoot -21.2995 8.22731
ltoes -57.5499
541
root -0.876912 18.6843 6.47024 13.6614 -2.94675 -3.14137
lowerback 10.077 0.291341 2.83335
upperback -1.67319 0.790314 0.561937
thorax -7.40411 0.277699 -1.13219
lowerneck 0.999798 15.701 18.1989
upperneck 15.6499 22.7964 -13.1726
head 8.3198 11.3242 -4.93669
rclavicle -1.63128e-014 4.91992e-015
rhumerus -85.1848 9.49724 -95.7624
rradius 105.287
rwrist 1.6629
rhand 3.23493 -24.125
rfingers 7.12502
rthumb 28.685 -51.9425
lclavicle -1.63128e-014 4.91992e-015
lhumerus -84.8646 -21.9692 107.86
lradius 107.214
lwrist 16.2392
lhand -13.1197 -22.0239
lfingers 7.12502
lthumb 12.9779 7.55245
rfemur -6.66354 1.60045 17.0973
rtibia 4.3208
rfoot -17.4471 -11.4726
rtoes -10.9093
lfemur -20.2867 2.53625 -10.3472
ltibia 29.1143
lfoot -21.3138 8.21295
ltoes -57.5431
542
root -0.876265 18.6828 6.47474 13.6531 -2.87804 -3.11832
lowerback 10.0038 0.272265 2.61876
upperback -1.68372 0.734889 0.555895
thorax -7.37755 0.259996 -1.00814
lowerneck -0.545278 14.8563 16.9535
upperneck 16.688 21.3563 -12.1199
head 8.42254 10.5573 -4.54823
rclavicle -3.8763e-015 -1.5704e-014
rhumerus -85.2732 9.58778 -95.8519
rradius 105.304
rwrist 1.67667
rhand 3.31541 -24.2225
rfingers 7.12502
rthumb 28.7619 -52.0269
lclavicle -3.8763e-015 -1.5704e-014
lhumerus -84.8857 -21.8115 107.829
lradius 107.289
lwrist 16.2102
lhand -13.1948 -22.024
lfingers 7.12502
lthumb 12.9054 7.55698
rfemur -6.73008 1.49489 17.0863
rtibia 4.52777
rfoot -17.5183 -11.3573
rtoes -10.8847
lfemur -20.2901 2.47706 -10.3671
ltibia 29.1236
lfoot -21.3379 8.15509
ltoes -57.4481
543
root -0.875424 18.682 6.47849 13.6148 -2.80121 -3.09434
lowerback 9.96771 0.208551 2.36422
upperback -1.69316 0.616811 0.556419
thorax -7.37317 0.21324 -0.84499
lowerneck -1.89247 13.9318 15.7828
upperneck 17.4624 19.8578 -11.2313
head 8.45728 9.77506 -4.23909
rclavicle 1.09829e-014 7.7526e-015
rhumerus -85.3577 9.80461 -95.9897
rradius 105.293
rwrist 1.72585
rhand 3.20929 -24.1767
rfingers 7.12502
rthumb 28.6605 -51.9984
lclavicle 1.09829e-014 7.7526e-015
lhumerus -84.9048 -21.4986 107.715
lradius 107.335
lwrist 16.1077
lhand -13.2057 -21.927
lfingers 7.12502
lthumb 12.8949 7.65459
rfemur -6.73997 1.38257 17.0744
rtibia 4.69772
rfoot -17.6041 -11.2321
rtoes -10.7232
lfemur -20.257 2.4196 -10.384
ltibia 29.1328
lfoot -21.3825 8.07731
ltoes -57.3218
